<svg width="30" height="29" viewBox="0 0 30 29" fill="none" xmlns="http://www.w3.org/2000/svg">
<path fill-rule="evenodd" clip-rule="evenodd" d="M15 0C10.9262 0 10.4154 0.0164901 8.81552 0.0862339C7.21888 0.155863 6.12854 0.398094 5.17437 0.752383C4.18799 1.11861 3.35147 1.60864 2.51758 2.40534C1.68369 3.20203 1.17079 4.00123 0.78745 4.94362C0.41662 5.85523 0.1631 6.89694 0.09021 8.42236C0.0172 9.95087 0 10.4389 0 14.331C0 18.2231 0.0172 18.7111 0.0902 20.2395C0.16309 21.765 0.41662 22.8067 0.78745 23.7183C1.17079 24.6606 1.68369 25.4599 2.51758 26.2566C3.35147 27.0533 4.18799 27.5433 5.17437 27.9095C6.12854 28.2638 7.21888 28.5061 8.81552 28.5756C10.4154 28.6454 10.9262 28.6618 15 28.6618C19.0738 28.6618 19.5846 28.6454 21.1844 28.5756C22.7811 28.5061 23.8714 28.2638 24.8256 27.9095C25.812 27.5433 26.6485 27.0533 27.4824 26.2566C28.3163 25.4599 28.8292 24.6607 29.2125 23.7183C29.5833 22.8067 29.8369 21.765 29.9097 20.2395C29.9827 18.7111 30 18.2231 30 14.331C30 10.4389 29.9827 9.95087 29.9097 8.42236C29.8369 6.89694 29.5833 5.85523 29.2125 4.94362C28.8292 4.00123 28.3163 3.20203 27.4824 2.40534C26.6485 1.60864 25.812 1.11861 24.8256 0.752383C23.8714 0.398094 22.7811 0.155863 21.1844 0.0862339C19.5846 0.0164901 19.0738 0 15 0ZM24.807 6.68103C24.807 7.63081 24.0011 8.40078 23.007 8.40078C22.0129 8.40078 21.207 7.63081 21.207 6.68103C21.207 5.73125 22.0129 4.96135 23.007 4.96135C24.0011 4.96135 24.807 5.73125 24.807 6.68103ZM7.29724 14.331C7.29724 10.2666 10.7459 6.97178 15 6.97178C19.254 6.97178 22.7027 10.2666 22.7027 14.331C22.7027 18.3952 19.254 21.6901 15 21.6901C10.7459 21.6901 7.29724 18.3952 7.29724 14.331ZM15 19.1079C12.2386 19.1079 9.99994 16.9692 9.99994 14.331C9.99994 11.6927 12.2386 9.5539 15 9.5539C17.7614 9.5539 20 11.6927 20 14.331C20 16.9692 17.7614 19.1079 15 19.1079Z" fill="black"/>
</svg>
