<svg width="28" height="27" viewBox="0 0 28 27" fill="none" xmlns="http://www.w3.org/2000/svg">
<g clip-path="url(#clip0_24_128)">
<path fill-rule="evenodd" clip-rule="evenodd" d="M7.13164 3.30153C7.13164 1.57002 5.6838 0.164551 3.9009 0.164551C2.1108 0.164551 0.666992 1.57002 0.666992 3.30153C0.666992 5.03359 2.1108 6.43906 3.9009 6.43906C5.6838 6.43906 7.13164 5.03359 7.13164 3.30153ZM6.32356 26.8312H1.47507V8.42599H6.32356V26.8312ZM15.0211 8.46374H9.55584V26.8313H15.2506V17.7466C15.2506 15.3504 15.7031 13.029 18.6701 13.029C21.5962 13.029 21.6338 15.7693 21.6338 17.8992V26.8313H27.3336V16.7578C27.3336 11.8111 26.2668 8.00777 20.495 8.00777C17.721 8.00777 15.8596 9.53062 15.0994 10.9745H15.0211V8.46374Z" fill="black"/>
</g>
<defs>
<clipPath id="clip0_24_128">
<rect width="28" height="27" fill="white"/>
</clipPath>
</defs>
</svg>
