<svg width="36" height="36" viewBox="0 0 36 36" fill="none" xmlns="http://www.w3.org/2000/svg">
<rect x="14.6667" y="12" width="16" height="3" fill="black"/>
<rect x="22.6667" y="15" width="2.66667" height="7.5" fill="black"/>
<rect x="12" y="12" width="2.66667" height="10.5" fill="black"/>
<rect x="12" y="22.5" width="13.3333" height="3" fill="black"/>
<rect x="28" y="15" width="2.66667" height="16.5" fill="black"/>
<rect y="28.5" width="28" height="3" fill="black"/>
<rect width="2.66667" height="28.5" fill="black"/>
<path d="M2.66675 0H36.0001V3H2.66675V0Z" fill="black"/>
<rect x="5.33325" y="6" width="2.66667" height="19.5" fill="black"/>
<rect x="8" y="22.5" width="4" height="3" fill="black"/>
<rect x="8" y="6" width="28" height="3" fill="black"/>
<rect x="33.3333" y="9" width="2.66667" height="27" fill="black"/>
<rect y="33" width="33.3333" height="3" fill="black"/>
<rect width="2.83823" height="8.47365" transform="matrix(0.664364 -0.747409 0.664364 0.747409 6.66675 8.12134)" fill="black"/>
<rect width="2.83823" height="8.47365" transform="matrix(0.664364 -0.747409 0.664364 0.747409 22.6667 24.6213)" fill="black"/>
<rect x="33.3333" y="3" width="2.66667" height="3" fill="black"/>
<rect y="31.5" width="2.66667" height="1.5" fill="black"/>
</svg>
