<svg width="32" height="27" viewBox="0 0 32 27" fill="none" xmlns="http://www.w3.org/2000/svg">
<path fill-rule="evenodd" clip-rule="evenodd" d="M9.9 26.4197C21.9 26.4197 28.4 16.5791 28.4 8.07611V7.21625C29.7 6.26085 30.8 5.20992 31.6 3.87237C30.4 4.35007 29.2 4.73222 27.9 4.9233C29.2 4.15899 30.3 2.82143 30.8 1.38834C29.5 2.15266 28.2 2.63035 26.7 2.91697C25.5 1.67496 23.8 0.910645 22 0.910645C18.4 0.910645 15.5 3.77683 15.5 7.31179C15.5 7.78949 15.6 8.26718 15.7 8.74488C10.3 8.45826 5.5 5.8787 2.3 2.05712C1.6 3.10805 1.3 4.25453 1.3 5.401C1.3 7.59841 2.4 9.60474 4.2 10.7512C3.1 10.7512 2.1 10.4646 1.3 9.98689V10.0824C1.3 13.2352 3.5 15.8148 6.5 16.388C5.9 16.5791 5.4 16.5791 4.8 16.5791C4.4 16.5791 4 16.5791 3.6 16.4836C4.3 18.9676 6.7 20.8784 9.6 20.8784C7.4 22.5981 4.6 23.649 1.5 23.649C1 23.649 0.5 23.649 0 23.5535C2.8 25.3687 6.3 26.4197 9.9 26.4197Z" fill="black"/>
</svg>
